<mxfile host="app.diagrams.net" agent="Mozilla/5.0 (X11; Linux x86_64; rv:109.0) Gecko/20100101 Firefox/115.0" version="24.8.3">
  <diagram name="Page-1" id="tH17y-MiYBbp7JRIog7S">
    <mxGraphModel dx="2163" dy="762" grid="1" gridSize="14" guides="1" tooltips="1" connect="1" arrows="1" fold="1" page="1" pageScale="1" pageWidth="850" pageHeight="1100" math="0" shadow="0">
      <root>
        <mxCell id="0" />
        <mxCell id="1" parent="0" />
        <mxCell id="VH_E1EFF06nMT_C9s5l1-58" value="&amp;lt;" style="text;strokeColor=none;align=center;fillColor=none;html=1;verticalAlign=middle;whiteSpace=wrap;rounded=0;" vertex="1" parent="1">
          <mxGeometry x="360" y="864.57" width="60" height="30" as="geometry" />
        </mxCell>
        <mxCell id="VH_E1EFF06nMT_C9s5l1-49" value="Comparator" style="rounded=0;whiteSpace=wrap;html=1;" vertex="1" parent="1">
          <mxGeometry x="290" y="770" width="120" height="160" as="geometry" />
        </mxCell>
        <mxCell id="VH_E1EFF06nMT_C9s5l1-1" value="" style="rounded=0;whiteSpace=wrap;html=1;" vertex="1" parent="1">
          <mxGeometry x="80" y="160" width="120" height="160" as="geometry" />
        </mxCell>
        <mxCell id="VH_E1EFF06nMT_C9s5l1-2" value="Oversampling" style="text;strokeColor=none;align=center;fillColor=none;html=1;verticalAlign=middle;whiteSpace=wrap;rounded=0;" vertex="1" parent="1">
          <mxGeometry x="95" y="210" width="90" height="50" as="geometry" />
        </mxCell>
        <mxCell id="VH_E1EFF06nMT_C9s5l1-4" value="" style="endArrow=classic;html=1;rounded=0;" edge="1" parent="1">
          <mxGeometry width="50" height="50" relative="1" as="geometry">
            <mxPoint y="200" as="sourcePoint" />
            <mxPoint x="80" y="200" as="targetPoint" />
          </mxGeometry>
        </mxCell>
        <mxCell id="VH_E1EFF06nMT_C9s5l1-5" value="" style="endArrow=classic;html=1;rounded=0;" edge="1" parent="1">
          <mxGeometry width="50" height="50" relative="1" as="geometry">
            <mxPoint y="259.81" as="sourcePoint" />
            <mxPoint x="80" y="259.81" as="targetPoint" />
          </mxGeometry>
        </mxCell>
        <mxCell id="VH_E1EFF06nMT_C9s5l1-6" value="Data_in [15:0]" style="text;strokeColor=none;align=center;fillColor=none;html=1;verticalAlign=middle;whiteSpace=wrap;rounded=0;" vertex="1" parent="1">
          <mxGeometry y="170" width="80" height="30" as="geometry" />
        </mxCell>
        <mxCell id="VH_E1EFF06nMT_C9s5l1-7" value="Data_valid" style="text;strokeColor=none;align=center;fillColor=none;html=1;verticalAlign=middle;whiteSpace=wrap;rounded=0;" vertex="1" parent="1">
          <mxGeometry x="10" y="229.81" width="60" height="30" as="geometry" />
        </mxCell>
        <mxCell id="VH_E1EFF06nMT_C9s5l1-8" value="" style="endArrow=classic;html=1;rounded=0;entryX=0;entryY=0.25;entryDx=0;entryDy=0;" edge="1" parent="1" target="VH_E1EFF06nMT_C9s5l1-12">
          <mxGeometry width="50" height="50" relative="1" as="geometry">
            <mxPoint x="200" y="200" as="sourcePoint" />
            <mxPoint x="280" y="200" as="targetPoint" />
          </mxGeometry>
        </mxCell>
        <mxCell id="VH_E1EFF06nMT_C9s5l1-9" value="Data_out [15:0]" style="text;strokeColor=none;align=center;fillColor=none;html=1;verticalAlign=middle;whiteSpace=wrap;rounded=0;" vertex="1" parent="1">
          <mxGeometry x="200" y="170" width="90" height="30" as="geometry" />
        </mxCell>
        <mxCell id="VH_E1EFF06nMT_C9s5l1-12" value="Integrator" style="rounded=0;whiteSpace=wrap;html=1;" vertex="1" parent="1">
          <mxGeometry x="360" y="160" width="120" height="160" as="geometry" />
        </mxCell>
        <mxCell id="VH_E1EFF06nMT_C9s5l1-13" value="&lt;div&gt;Z&lt;sup&gt;-1&lt;br&gt;&lt;/sup&gt;&lt;/div&gt;&lt;div&gt;&lt;sup&gt;(D flip-flop)&lt;br&gt;&lt;/sup&gt;&lt;/div&gt;" style="rounded=0;whiteSpace=wrap;html=1;" vertex="1" parent="1">
          <mxGeometry x="640" y="160" width="120" height="160" as="geometry" />
        </mxCell>
        <mxCell id="VH_E1EFF06nMT_C9s5l1-14" value="" style="endArrow=classic;html=1;rounded=0;entryX=0;entryY=0.25;entryDx=0;entryDy=0;" edge="1" parent="1" target="VH_E1EFF06nMT_C9s5l1-13">
          <mxGeometry width="50" height="50" relative="1" as="geometry">
            <mxPoint x="480" y="200" as="sourcePoint" />
            <mxPoint x="600" y="200" as="targetPoint" />
          </mxGeometry>
        </mxCell>
        <mxCell id="VH_E1EFF06nMT_C9s5l1-15" value="Intergrated_data [15:0]" style="text;strokeColor=none;align=center;fillColor=none;html=1;verticalAlign=middle;whiteSpace=wrap;rounded=0;" vertex="1" parent="1">
          <mxGeometry x="480" y="170" width="130" height="30" as="geometry" />
        </mxCell>
        <mxCell id="VH_E1EFF06nMT_C9s5l1-19" value="" style="endArrow=none;html=1;rounded=0;" edge="1" parent="1">
          <mxGeometry width="50" height="50" relative="1" as="geometry">
            <mxPoint x="640" y="310" as="sourcePoint" />
            <mxPoint x="660" y="300" as="targetPoint" />
          </mxGeometry>
        </mxCell>
        <mxCell id="VH_E1EFF06nMT_C9s5l1-20" value="" style="endArrow=none;html=1;rounded=0;exitX=0.005;exitY=0.772;exitDx=0;exitDy=0;exitPerimeter=0;" edge="1" parent="1" source="VH_E1EFF06nMT_C9s5l1-13">
          <mxGeometry width="50" height="50" relative="1" as="geometry">
            <mxPoint x="630" y="320" as="sourcePoint" />
            <mxPoint x="660" y="300" as="targetPoint" />
          </mxGeometry>
        </mxCell>
        <mxCell id="VH_E1EFF06nMT_C9s5l1-21" value="" style="endArrow=none;html=1;rounded=0;" edge="1" parent="1">
          <mxGeometry width="50" height="50" relative="1" as="geometry">
            <mxPoint x="360" y="306" as="sourcePoint" />
            <mxPoint x="380" y="296" as="targetPoint" />
          </mxGeometry>
        </mxCell>
        <mxCell id="VH_E1EFF06nMT_C9s5l1-22" value="" style="endArrow=none;html=1;rounded=0;exitX=0.005;exitY=0.772;exitDx=0;exitDy=0;exitPerimeter=0;" edge="1" parent="1">
          <mxGeometry width="50" height="50" relative="1" as="geometry">
            <mxPoint x="361" y="280" as="sourcePoint" />
            <mxPoint x="380" y="296" as="targetPoint" />
          </mxGeometry>
        </mxCell>
        <mxCell id="VH_E1EFF06nMT_C9s5l1-23" value="" style="endArrow=none;html=1;rounded=0;" edge="1" parent="1">
          <mxGeometry width="50" height="50" relative="1" as="geometry">
            <mxPoint x="80" y="306" as="sourcePoint" />
            <mxPoint x="100" y="296" as="targetPoint" />
          </mxGeometry>
        </mxCell>
        <mxCell id="VH_E1EFF06nMT_C9s5l1-24" value="" style="endArrow=none;html=1;rounded=0;exitX=0.005;exitY=0.772;exitDx=0;exitDy=0;exitPerimeter=0;" edge="1" parent="1">
          <mxGeometry width="50" height="50" relative="1" as="geometry">
            <mxPoint x="81" y="280" as="sourcePoint" />
            <mxPoint x="100" y="296" as="targetPoint" />
          </mxGeometry>
        </mxCell>
        <mxCell id="VH_E1EFF06nMT_C9s5l1-25" value="Kwantyzator" style="rounded=0;whiteSpace=wrap;html=1;" vertex="1" parent="1">
          <mxGeometry x="920" y="160" width="120" height="160" as="geometry" />
        </mxCell>
        <mxCell id="VH_E1EFF06nMT_C9s5l1-26" value="" style="endArrow=none;html=1;rounded=0;" edge="1" parent="1">
          <mxGeometry width="50" height="50" relative="1" as="geometry">
            <mxPoint x="920" y="310" as="sourcePoint" />
            <mxPoint x="940" y="300" as="targetPoint" />
          </mxGeometry>
        </mxCell>
        <mxCell id="VH_E1EFF06nMT_C9s5l1-27" value="" style="endArrow=none;html=1;rounded=0;exitX=0.005;exitY=0.772;exitDx=0;exitDy=0;exitPerimeter=0;" edge="1" parent="1" source="VH_E1EFF06nMT_C9s5l1-25">
          <mxGeometry width="50" height="50" relative="1" as="geometry">
            <mxPoint x="910" y="320" as="sourcePoint" />
            <mxPoint x="940" y="300" as="targetPoint" />
          </mxGeometry>
        </mxCell>
        <mxCell id="VH_E1EFF06nMT_C9s5l1-28" value="" style="endArrow=classic;html=1;rounded=0;entryX=0;entryY=0.25;entryDx=0;entryDy=0;" edge="1" parent="1">
          <mxGeometry width="50" height="50" relative="1" as="geometry">
            <mxPoint x="760" y="199.72" as="sourcePoint" />
            <mxPoint x="920" y="199.72" as="targetPoint" />
          </mxGeometry>
        </mxCell>
        <mxCell id="VH_E1EFF06nMT_C9s5l1-29" value="Intergrated_data [15:0]" style="text;strokeColor=none;align=center;fillColor=none;html=1;verticalAlign=middle;whiteSpace=wrap;rounded=0;" vertex="1" parent="1">
          <mxGeometry x="760" y="170" width="150" height="30" as="geometry" />
        </mxCell>
        <mxCell id="VH_E1EFF06nMT_C9s5l1-31" value="" style="endArrow=classic;html=1;rounded=0;entryX=0;entryY=0.25;entryDx=0;entryDy=0;" edge="1" parent="1">
          <mxGeometry width="50" height="50" relative="1" as="geometry">
            <mxPoint x="1040" y="199.72" as="sourcePoint" />
            <mxPoint x="1200" y="199.72" as="targetPoint" />
          </mxGeometry>
        </mxCell>
        <mxCell id="VH_E1EFF06nMT_C9s5l1-32" value="&lt;div&gt;Quantized_data&lt;/div&gt;" style="text;strokeColor=none;align=center;fillColor=none;html=1;verticalAlign=middle;whiteSpace=wrap;rounded=0;" vertex="1" parent="1">
          <mxGeometry x="1040" y="170" width="150" height="30" as="geometry" />
        </mxCell>
        <mxCell id="VH_E1EFF06nMT_C9s5l1-33" value="Digital-to-Digital Converter" style="rounded=0;whiteSpace=wrap;html=1;" vertex="1" parent="1">
          <mxGeometry x="640" y="440" width="120" height="160" as="geometry" />
        </mxCell>
        <mxCell id="VH_E1EFF06nMT_C9s5l1-34" value="" style="endArrow=none;html=1;rounded=0;" edge="1" parent="1">
          <mxGeometry width="50" height="50" relative="1" as="geometry">
            <mxPoint x="640" y="590" as="sourcePoint" />
            <mxPoint x="660" y="580" as="targetPoint" />
          </mxGeometry>
        </mxCell>
        <mxCell id="VH_E1EFF06nMT_C9s5l1-35" value="" style="endArrow=none;html=1;rounded=0;exitX=0.005;exitY=0.772;exitDx=0;exitDy=0;exitPerimeter=0;" edge="1" parent="1" source="VH_E1EFF06nMT_C9s5l1-33">
          <mxGeometry width="50" height="50" relative="1" as="geometry">
            <mxPoint x="630" y="600" as="sourcePoint" />
            <mxPoint x="660" y="580" as="targetPoint" />
          </mxGeometry>
        </mxCell>
        <mxCell id="VH_E1EFF06nMT_C9s5l1-38" value="" style="endArrow=classic;html=1;rounded=0;entryX=1;entryY=0.25;entryDx=0;entryDy=0;" edge="1" parent="1" target="VH_E1EFF06nMT_C9s5l1-33">
          <mxGeometry width="50" height="50" relative="1" as="geometry">
            <mxPoint x="1120" y="480" as="sourcePoint" />
            <mxPoint x="1480" y="170" as="targetPoint" />
          </mxGeometry>
        </mxCell>
        <mxCell id="VH_E1EFF06nMT_C9s5l1-39" value="" style="endArrow=none;html=1;rounded=0;entryX=0.533;entryY=1;entryDx=0;entryDy=0;entryPerimeter=0;" edge="1" parent="1" source="VH_E1EFF06nMT_C9s5l1-41" target="VH_E1EFF06nMT_C9s5l1-32">
          <mxGeometry width="50" height="50" relative="1" as="geometry">
            <mxPoint x="1120" y="480" as="sourcePoint" />
            <mxPoint x="1200" y="360" as="targetPoint" />
          </mxGeometry>
        </mxCell>
        <mxCell id="VH_E1EFF06nMT_C9s5l1-42" value="" style="endArrow=none;html=1;rounded=0;entryX=0.533;entryY=1;entryDx=0;entryDy=0;entryPerimeter=0;" edge="1" parent="1" target="VH_E1EFF06nMT_C9s5l1-41">
          <mxGeometry width="50" height="50" relative="1" as="geometry">
            <mxPoint x="1120" y="480" as="sourcePoint" />
            <mxPoint x="1120" y="200" as="targetPoint" />
          </mxGeometry>
        </mxCell>
        <mxCell id="VH_E1EFF06nMT_C9s5l1-41" value="" style="ellipse;whiteSpace=wrap;html=1;aspect=fixed;" vertex="1" parent="1">
          <mxGeometry x="1110" y="190.1" width="19.9" height="19.9" as="geometry" />
        </mxCell>
        <mxCell id="VH_E1EFF06nMT_C9s5l1-43" value="" style="endArrow=none;html=1;rounded=0;exitX=0;exitY=0.25;exitDx=0;exitDy=0;" edge="1" parent="1" source="VH_E1EFF06nMT_C9s5l1-33">
          <mxGeometry width="50" height="50" relative="1" as="geometry">
            <mxPoint x="660" y="420" as="sourcePoint" />
            <mxPoint x="280" y="480" as="targetPoint" />
          </mxGeometry>
        </mxCell>
        <mxCell id="VH_E1EFF06nMT_C9s5l1-44" value="" style="endArrow=classic;html=1;rounded=0;entryX=0;entryY=0.5;entryDx=0;entryDy=0;" edge="1" parent="1" target="VH_E1EFF06nMT_C9s5l1-12">
          <mxGeometry width="50" height="50" relative="1" as="geometry">
            <mxPoint x="280" y="240" as="sourcePoint" />
            <mxPoint x="330" y="230" as="targetPoint" />
          </mxGeometry>
        </mxCell>
        <mxCell id="VH_E1EFF06nMT_C9s5l1-45" value="" style="endArrow=none;html=1;rounded=0;" edge="1" parent="1">
          <mxGeometry width="50" height="50" relative="1" as="geometry">
            <mxPoint x="280" y="480" as="sourcePoint" />
            <mxPoint x="280" y="240" as="targetPoint" />
          </mxGeometry>
        </mxCell>
        <mxCell id="VH_E1EFF06nMT_C9s5l1-46" value="Extendended_data [15:0]" style="text;strokeColor=none;align=center;fillColor=none;html=1;verticalAlign=middle;whiteSpace=wrap;rounded=0;" vertex="1" parent="1">
          <mxGeometry x="470" y="450" width="160" height="30" as="geometry" />
        </mxCell>
        <mxCell id="VH_E1EFF06nMT_C9s5l1-48" value="Kwantyzator" style="text;strokeColor=none;align=center;fillColor=none;html=1;verticalAlign=middle;whiteSpace=wrap;rounded=0;" vertex="1" parent="1">
          <mxGeometry x="40" y="700" width="60" height="30" as="geometry" />
        </mxCell>
        <mxCell id="VH_E1EFF06nMT_C9s5l1-50" value="" style="endArrow=none;html=1;rounded=0;" edge="1" parent="1">
          <mxGeometry width="50" height="50" relative="1" as="geometry">
            <mxPoint x="290" y="920" as="sourcePoint" />
            <mxPoint x="310" y="910" as="targetPoint" />
          </mxGeometry>
        </mxCell>
        <mxCell id="VH_E1EFF06nMT_C9s5l1-51" value="" style="endArrow=none;html=1;rounded=0;exitX=0.005;exitY=0.772;exitDx=0;exitDy=0;exitPerimeter=0;" edge="1" parent="1" source="VH_E1EFF06nMT_C9s5l1-49">
          <mxGeometry width="50" height="50" relative="1" as="geometry">
            <mxPoint x="280" y="930" as="sourcePoint" />
            <mxPoint x="310" y="910" as="targetPoint" />
          </mxGeometry>
        </mxCell>
        <mxCell id="VH_E1EFF06nMT_C9s5l1-52" value="" style="endArrow=classic;html=1;rounded=0;" edge="1" parent="1">
          <mxGeometry width="50" height="50" relative="1" as="geometry">
            <mxPoint x="210" y="810" as="sourcePoint" />
            <mxPoint x="290" y="810" as="targetPoint" />
          </mxGeometry>
        </mxCell>
        <mxCell id="VH_E1EFF06nMT_C9s5l1-53" value="Data_in [15:0]" style="text;strokeColor=none;align=center;fillColor=none;html=1;verticalAlign=middle;whiteSpace=wrap;rounded=0;" vertex="1" parent="1">
          <mxGeometry x="210" y="780" width="80" height="30" as="geometry" />
        </mxCell>
        <mxCell id="VH_E1EFF06nMT_C9s5l1-54" value="" style="endArrow=classic;html=1;rounded=0;" edge="1" parent="1">
          <mxGeometry width="50" height="50" relative="1" as="geometry">
            <mxPoint x="210" y="864.57" as="sourcePoint" />
            <mxPoint x="290" y="864.57" as="targetPoint" />
          </mxGeometry>
        </mxCell>
        <mxCell id="VH_E1EFF06nMT_C9s5l1-55" value="Threshold [15:0]" style="text;strokeColor=none;align=center;fillColor=none;html=1;verticalAlign=middle;whiteSpace=wrap;rounded=0;" vertex="1" parent="1">
          <mxGeometry x="200" y="834.57" width="90" height="30" as="geometry" />
        </mxCell>
        <mxCell id="VH_E1EFF06nMT_C9s5l1-61" style="edgeStyle=orthogonalEdgeStyle;rounded=0;orthogonalLoop=1;jettySize=auto;html=1;exitX=0;exitY=0.65;exitDx=0;exitDy=3;exitPerimeter=0;" edge="1" parent="1" source="VH_E1EFF06nMT_C9s5l1-56">
          <mxGeometry relative="1" as="geometry">
            <mxPoint x="500" y="840" as="targetPoint" />
          </mxGeometry>
        </mxCell>
        <mxCell id="VH_E1EFF06nMT_C9s5l1-56" value="Mux" style="shadow=0;dashed=0;align=center;html=1;strokeWidth=1;shape=mxgraph.electrical.abstract.mux2;whiteSpace=wrap;" vertex="1" parent="1">
          <mxGeometry x="505" y="780" width="80" height="120" as="geometry" />
        </mxCell>
        <mxCell id="VH_E1EFF06nMT_C9s5l1-57" value="&amp;gt;=" style="text;strokeColor=none;align=center;fillColor=none;html=1;verticalAlign=middle;whiteSpace=wrap;rounded=0;" vertex="1" parent="1">
          <mxGeometry x="360" y="780" width="60" height="30" as="geometry" />
        </mxCell>
        <mxCell id="VH_E1EFF06nMT_C9s5l1-63" value="" style="pointerEvents=1;verticalLabelPosition=bottom;shadow=0;dashed=0;align=center;html=1;verticalAlign=top;shape=mxgraph.electrical.signal_sources.signal_ground;" vertex="1" parent="1">
          <mxGeometry x="500" y="820" width="10" height="5.43" as="geometry" />
        </mxCell>
        <mxCell id="VH_E1EFF06nMT_C9s5l1-74" value="" style="endArrow=none;html=1;rounded=0;strokeColor=default;align=center;verticalAlign=middle;fontFamily=Helvetica;fontSize=11;fontColor=default;labelBackgroundColor=default;exitX=0.5;exitY=0;exitDx=0;exitDy=0;exitPerimeter=0;entryX=0.001;entryY=0.238;entryDx=0;entryDy=0;entryPerimeter=0;" edge="1" parent="1" source="VH_E1EFF06nMT_C9s5l1-63" target="VH_E1EFF06nMT_C9s5l1-56">
          <mxGeometry width="50" height="50" relative="1" as="geometry">
            <mxPoint x="455" y="860" as="sourcePoint" />
            <mxPoint x="505" y="810" as="targetPoint" />
          </mxGeometry>
        </mxCell>
        <mxCell id="VH_E1EFF06nMT_C9s5l1-76" value="" style="endArrow=none;html=1;rounded=0;strokeColor=default;align=center;verticalAlign=middle;fontFamily=Helvetica;fontSize=11;fontColor=default;labelBackgroundColor=default;" edge="1" parent="1">
          <mxGeometry width="50" height="50" relative="1" as="geometry">
            <mxPoint x="410" y="800" as="sourcePoint" />
            <mxPoint x="480" y="800" as="targetPoint" />
          </mxGeometry>
        </mxCell>
        <mxCell id="VH_E1EFF06nMT_C9s5l1-77" value="" style="endArrow=none;html=1;rounded=0;strokeColor=default;align=center;verticalAlign=middle;fontFamily=Helvetica;fontSize=11;fontColor=default;labelBackgroundColor=default;entryX=0.495;entryY=0.999;entryDx=0;entryDy=0;entryPerimeter=0;" edge="1" parent="1" target="VH_E1EFF06nMT_C9s5l1-56">
          <mxGeometry width="50" height="50" relative="1" as="geometry">
            <mxPoint x="440" y="900" as="sourcePoint" />
            <mxPoint x="540" y="900" as="targetPoint" />
          </mxGeometry>
        </mxCell>
        <mxCell id="VH_E1EFF06nMT_C9s5l1-78" value="" style="endArrow=classic;html=1;rounded=0;strokeColor=default;align=center;verticalAlign=middle;fontFamily=Helvetica;fontSize=11;fontColor=default;labelBackgroundColor=default;" edge="1" parent="1">
          <mxGeometry width="50" height="50" relative="1" as="geometry">
            <mxPoint x="440" y="880" as="sourcePoint" />
            <mxPoint x="440" y="900" as="targetPoint" />
          </mxGeometry>
        </mxCell>
        <mxCell id="VH_E1EFF06nMT_C9s5l1-79" value="" style="endArrow=none;html=1;rounded=0;strokeColor=default;align=center;verticalAlign=middle;fontFamily=Helvetica;fontSize=11;fontColor=default;labelBackgroundColor=default;exitX=0.999;exitY=0.687;exitDx=0;exitDy=0;exitPerimeter=0;" edge="1" parent="1" source="VH_E1EFF06nMT_C9s5l1-49">
          <mxGeometry width="50" height="50" relative="1" as="geometry">
            <mxPoint x="470" y="920" as="sourcePoint" />
            <mxPoint x="440" y="880" as="targetPoint" />
          </mxGeometry>
        </mxCell>
        <mxCell id="VH_E1EFF06nMT_C9s5l1-80" value="" style="endArrow=classic;html=1;rounded=0;strokeColor=default;align=center;verticalAlign=middle;fontFamily=Helvetica;fontSize=11;fontColor=default;labelBackgroundColor=default;" edge="1" parent="1">
          <mxGeometry width="50" height="50" relative="1" as="geometry">
            <mxPoint x="480" y="800" as="sourcePoint" />
            <mxPoint x="480" y="900" as="targetPoint" />
          </mxGeometry>
        </mxCell>
        <mxCell id="VH_E1EFF06nMT_C9s5l1-81" value="" style="endArrow=classic;html=1;rounded=0;strokeColor=default;align=center;verticalAlign=middle;fontFamily=Helvetica;fontSize=11;fontColor=default;labelBackgroundColor=default;exitX=1;exitY=0.5;exitDx=0;exitDy=-5;exitPerimeter=0;" edge="1" parent="1" source="VH_E1EFF06nMT_C9s5l1-56">
          <mxGeometry width="50" height="50" relative="1" as="geometry">
            <mxPoint x="585" y="834.57" as="sourcePoint" />
            <mxPoint x="675" y="835.07" as="targetPoint" />
          </mxGeometry>
        </mxCell>
        <mxCell id="VH_E1EFF06nMT_C9s5l1-82" value="Quantized_data" style="text;strokeColor=none;align=center;fillColor=none;html=1;verticalAlign=middle;whiteSpace=wrap;rounded=0;fontFamily=Helvetica;fontSize=11;fontColor=default;labelBackgroundColor=default;" vertex="1" parent="1">
          <mxGeometry x="600" y="804.57" width="60" height="30" as="geometry" />
        </mxCell>
        <mxCell id="VH_E1EFF06nMT_C9s5l1-83" value="" style="verticalLabelPosition=bottom;shadow=0;dashed=0;align=center;html=1;verticalAlign=top;shape=mxgraph.electrical.abstract.summation_point;fontFamily=Helvetica;fontSize=11;fontColor=default;labelBackgroundColor=default;" vertex="1" parent="1">
          <mxGeometry x="280" y="1280" width="50" height="50" as="geometry" />
        </mxCell>
        <mxCell id="VH_E1EFF06nMT_C9s5l1-84" value="Integrator" style="text;strokeColor=none;align=center;fillColor=none;html=1;verticalAlign=middle;whiteSpace=wrap;rounded=0;fontFamily=Helvetica;fontSize=11;fontColor=default;labelBackgroundColor=default;" vertex="1" parent="1">
          <mxGeometry x="70" y="1140" width="60" height="30" as="geometry" />
        </mxCell>
        <mxCell id="VH_E1EFF06nMT_C9s5l1-85" value="" style="endArrow=classic;html=1;rounded=0;strokeColor=default;align=center;verticalAlign=middle;fontFamily=Helvetica;fontSize=11;fontColor=default;labelBackgroundColor=default;entryX=0.587;entryY=0.012;entryDx=0;entryDy=0;entryPerimeter=0;" edge="1" parent="1" target="VH_E1EFF06nMT_C9s5l1-83">
          <mxGeometry width="50" height="50" relative="1" as="geometry">
            <mxPoint x="120" y="1200" as="sourcePoint" />
            <mxPoint x="320" y="1220" as="targetPoint" />
            <Array as="points">
              <mxPoint x="310" y="1200" />
            </Array>
          </mxGeometry>
        </mxCell>
        <mxCell id="VH_E1EFF06nMT_C9s5l1-86" value="" style="endArrow=classic;html=1;rounded=0;strokeColor=default;align=center;verticalAlign=middle;fontFamily=Helvetica;fontSize=11;fontColor=default;labelBackgroundColor=default;entryX=0.5;entryY=1;entryDx=0;entryDy=0;entryPerimeter=0;" edge="1" parent="1" target="VH_E1EFF06nMT_C9s5l1-83">
          <mxGeometry width="50" height="50" relative="1" as="geometry">
            <mxPoint x="120" y="1410" as="sourcePoint" />
            <mxPoint x="304" y="1491" as="targetPoint" />
            <Array as="points">
              <mxPoint x="305" y="1410" />
            </Array>
          </mxGeometry>
        </mxCell>
        <mxCell id="VH_E1EFF06nMT_C9s5l1-87" value="" style="endArrow=classic;html=1;rounded=0;strokeColor=default;align=center;verticalAlign=middle;fontFamily=Helvetica;fontSize=11;fontColor=default;labelBackgroundColor=default;edgeStyle=orthogonalEdgeStyle;exitX=1;exitY=0.5;exitDx=0;exitDy=0;exitPerimeter=0;" edge="1" parent="1" source="VH_E1EFF06nMT_C9s5l1-83">
          <mxGeometry width="50" height="50" relative="1" as="geometry">
            <mxPoint x="380" y="1304.73" as="sourcePoint" />
            <mxPoint x="480" y="1304.73" as="targetPoint" />
          </mxGeometry>
        </mxCell>
        <mxCell id="VH_E1EFF06nMT_C9s5l1-88" value="Data_out [15:0]" style="text;strokeColor=none;align=center;fillColor=none;html=1;verticalAlign=middle;whiteSpace=wrap;rounded=0;" vertex="1" parent="1">
          <mxGeometry x="130" y="1170" width="90" height="30" as="geometry" />
        </mxCell>
        <mxCell id="VH_E1EFF06nMT_C9s5l1-89" value="Extendended_data [15:0]" style="text;strokeColor=none;align=center;fillColor=none;html=1;verticalAlign=middle;whiteSpace=wrap;rounded=0;" vertex="1" parent="1">
          <mxGeometry x="130" y="1380" width="160" height="30" as="geometry" />
        </mxCell>
        <mxCell id="VH_E1EFF06nMT_C9s5l1-90" value="Intergrated_data [15:0]" style="text;strokeColor=none;align=center;fillColor=none;html=1;verticalAlign=middle;whiteSpace=wrap;rounded=0;" vertex="1" parent="1">
          <mxGeometry x="370" y="1260" width="130" height="30" as="geometry" />
        </mxCell>
        <mxCell id="VH_E1EFF06nMT_C9s5l1-96" style="shape=connector;rounded=0;orthogonalLoop=1;jettySize=auto;html=1;exitX=0;exitY=0.21666666666666667;exitDx=0;exitDy=3;exitPerimeter=0;strokeColor=default;align=center;verticalAlign=middle;fontFamily=Helvetica;fontSize=11;fontColor=default;labelBackgroundColor=default;endArrow=none;" edge="1" parent="1" source="VH_E1EFF06nMT_C9s5l1-91">
          <mxGeometry relative="1" as="geometry">
            <mxPoint x="430" y="1927" as="targetPoint" />
          </mxGeometry>
        </mxCell>
        <mxCell id="VH_E1EFF06nMT_C9s5l1-98" style="edgeStyle=orthogonalEdgeStyle;shape=connector;rounded=0;orthogonalLoop=1;jettySize=auto;html=1;exitX=0;exitY=0.65;exitDx=0;exitDy=3;exitPerimeter=0;strokeColor=default;align=center;verticalAlign=middle;fontFamily=Helvetica;fontSize=11;fontColor=default;labelBackgroundColor=default;endArrow=none;" edge="1" parent="1" source="VH_E1EFF06nMT_C9s5l1-91">
          <mxGeometry relative="1" as="geometry">
            <mxPoint x="430" y="1979" as="targetPoint" />
          </mxGeometry>
        </mxCell>
        <mxCell id="VH_E1EFF06nMT_C9s5l1-102" style="edgeStyle=orthogonalEdgeStyle;shape=connector;rounded=0;orthogonalLoop=1;jettySize=auto;html=1;exitX=0.375;exitY=1;exitDx=10;exitDy=0;exitPerimeter=0;strokeColor=default;align=center;verticalAlign=middle;fontFamily=Helvetica;fontSize=11;fontColor=default;labelBackgroundColor=default;endArrow=none;" edge="1" parent="1" source="VH_E1EFF06nMT_C9s5l1-91">
          <mxGeometry relative="1" as="geometry">
            <mxPoint x="500" y="2038" as="targetPoint" />
          </mxGeometry>
        </mxCell>
        <mxCell id="VH_E1EFF06nMT_C9s5l1-106" style="edgeStyle=orthogonalEdgeStyle;shape=connector;rounded=0;orthogonalLoop=1;jettySize=auto;html=1;exitX=1;exitY=0.5;exitDx=0;exitDy=-5;exitPerimeter=0;strokeColor=default;align=center;verticalAlign=middle;fontFamily=Helvetica;fontSize=11;fontColor=default;labelBackgroundColor=default;endArrow=none;" edge="1" parent="1" source="VH_E1EFF06nMT_C9s5l1-91">
          <mxGeometry relative="1" as="geometry">
            <mxPoint x="710" y="1953.0967741935483" as="targetPoint" />
          </mxGeometry>
        </mxCell>
        <mxCell id="VH_E1EFF06nMT_C9s5l1-91" value="Mux" style="shadow=0;dashed=0;align=center;html=1;strokeWidth=1;shape=mxgraph.electrical.abstract.mux2;whiteSpace=wrap;fontFamily=Helvetica;fontSize=11;fontColor=default;labelBackgroundColor=default;" vertex="1" parent="1">
          <mxGeometry x="520" y="1898" width="80" height="120" as="geometry" />
        </mxCell>
        <mxCell id="VH_E1EFF06nMT_C9s5l1-99" value="16&#39;b1" style="text;strokeColor=none;align=center;fillColor=none;html=1;verticalAlign=middle;whiteSpace=wrap;rounded=0;fontFamily=Helvetica;fontSize=11;fontColor=default;labelBackgroundColor=default;" vertex="1" parent="1">
          <mxGeometry x="435" y="1898" width="60" height="30" as="geometry" />
        </mxCell>
        <mxCell id="VH_E1EFF06nMT_C9s5l1-100" value="16&#39;d1" style="text;strokeColor=none;align=center;fillColor=none;html=1;verticalAlign=middle;whiteSpace=wrap;rounded=0;fontFamily=Helvetica;fontSize=11;fontColor=default;labelBackgroundColor=default;" vertex="1" parent="1">
          <mxGeometry x="435" y="1948" width="60" height="30" as="geometry" />
        </mxCell>
        <mxCell id="VH_E1EFF06nMT_C9s5l1-104" value="&lt;div&gt;Quantized_data&lt;/div&gt;" style="text;strokeColor=none;align=center;fillColor=none;html=1;verticalAlign=middle;whiteSpace=wrap;rounded=0;" vertex="1" parent="1">
          <mxGeometry x="430" y="2048" width="150" height="30" as="geometry" />
        </mxCell>
        <mxCell id="VH_E1EFF06nMT_C9s5l1-107" value="Extendended_data [15:0]" style="text;strokeColor=none;align=center;fillColor=none;html=1;verticalAlign=middle;whiteSpace=wrap;rounded=0;" vertex="1" parent="1">
          <mxGeometry x="600" y="1918" width="160" height="30" as="geometry" />
        </mxCell>
        <mxCell id="VH_E1EFF06nMT_C9s5l1-108" value="Digital-to-Digital Converter" style="text;strokeColor=none;align=center;fillColor=none;html=1;verticalAlign=middle;whiteSpace=wrap;rounded=0;fontFamily=Helvetica;fontSize=11;fontColor=default;labelBackgroundColor=default;" vertex="1" parent="1">
          <mxGeometry x="430" y="1848" width="180" height="30" as="geometry" />
        </mxCell>
        <mxCell id="VH_E1EFF06nMT_C9s5l1-109" value="Oversampling" style="text;strokeColor=none;align=center;fillColor=none;html=1;verticalAlign=middle;whiteSpace=wrap;rounded=0;fontFamily=Helvetica;fontSize=11;fontColor=default;labelBackgroundColor=default;" vertex="1" parent="1">
          <mxGeometry x="100" y="1530" width="60" height="30" as="geometry" />
        </mxCell>
        <mxCell id="VH_E1EFF06nMT_C9s5l1-110" value="" style="endArrow=classic;html=1;rounded=0;strokeColor=default;align=center;verticalAlign=middle;fontFamily=Helvetica;fontSize=11;fontColor=default;labelBackgroundColor=default;" edge="1" parent="1">
          <mxGeometry width="50" height="50" relative="1" as="geometry">
            <mxPoint x="405" y="1600" as="sourcePoint" />
            <mxPoint x="485" y="1600" as="targetPoint" />
          </mxGeometry>
        </mxCell>
        <mxCell id="VH_E1EFF06nMT_C9s5l1-112" value="" style="rounded=0;whiteSpace=wrap;html=1;" vertex="1" parent="1">
          <mxGeometry x="485" y="1570" width="120" height="160" as="geometry" />
        </mxCell>
        <mxCell id="VH_E1EFF06nMT_C9s5l1-113" value="&lt;font style=&quot;font-size: 13px;&quot;&gt;D&lt;/font&gt;" style="text;strokeColor=none;align=center;fillColor=none;html=1;verticalAlign=middle;whiteSpace=wrap;rounded=0;fontFamily=Helvetica;fontSize=11;fontColor=default;labelBackgroundColor=default;" vertex="1" parent="1">
          <mxGeometry x="465" y="1580" width="60" height="30" as="geometry" />
        </mxCell>
        <mxCell id="VH_E1EFF06nMT_C9s5l1-115" value="" style="endArrow=none;html=1;rounded=0;" edge="1" parent="1">
          <mxGeometry width="50" height="50" relative="1" as="geometry">
            <mxPoint x="485" y="1720" as="sourcePoint" />
            <mxPoint x="505" y="1710" as="targetPoint" />
          </mxGeometry>
        </mxCell>
        <mxCell id="VH_E1EFF06nMT_C9s5l1-116" value="" style="endArrow=none;html=1;rounded=0;exitX=0.005;exitY=0.772;exitDx=0;exitDy=0;exitPerimeter=0;" edge="1" parent="1">
          <mxGeometry width="50" height="50" relative="1" as="geometry">
            <mxPoint x="485" y="1696" as="sourcePoint" />
            <mxPoint x="504" y="1712" as="targetPoint" />
          </mxGeometry>
        </mxCell>
        <mxCell id="VH_E1EFF06nMT_C9s5l1-117" value="" style="endArrow=classic;html=1;rounded=0;strokeColor=default;align=center;verticalAlign=middle;fontFamily=Helvetica;fontSize=11;fontColor=default;labelBackgroundColor=default;" edge="1" parent="1">
          <mxGeometry width="50" height="50" relative="1" as="geometry">
            <mxPoint x="405" y="1704.81" as="sourcePoint" />
            <mxPoint x="485" y="1704.81" as="targetPoint" />
          </mxGeometry>
        </mxCell>
        <mxCell id="VH_E1EFF06nMT_C9s5l1-118" value="" style="rounded=0;whiteSpace=wrap;html=1;" vertex="1" parent="1">
          <mxGeometry x="321" y="1680" width="84" height="90" as="geometry" />
        </mxCell>
        <mxCell id="VH_E1EFF06nMT_C9s5l1-119" value="Q" style="text;strokeColor=none;align=center;fillColor=none;html=1;verticalAlign=middle;whiteSpace=wrap;rounded=0;fontFamily=Helvetica;fontSize=11;fontColor=default;labelBackgroundColor=default;" vertex="1" parent="1">
          <mxGeometry x="363" y="1690" width="60" height="30" as="geometry" />
        </mxCell>
        <mxCell id="VH_E1EFF06nMT_C9s5l1-120" value="" style="endArrow=none;html=1;rounded=0;" edge="1" parent="1">
          <mxGeometry width="50" height="50" relative="1" as="geometry">
            <mxPoint x="321" y="1766" as="sourcePoint" />
            <mxPoint x="341" y="1756" as="targetPoint" />
          </mxGeometry>
        </mxCell>
        <mxCell id="VH_E1EFF06nMT_C9s5l1-121" value="" style="endArrow=none;html=1;rounded=0;exitX=0.005;exitY=0.772;exitDx=0;exitDy=0;exitPerimeter=0;" edge="1" parent="1">
          <mxGeometry width="50" height="50" relative="1" as="geometry">
            <mxPoint x="321" y="1742" as="sourcePoint" />
            <mxPoint x="340" y="1758" as="targetPoint" />
          </mxGeometry>
        </mxCell>
        <mxCell id="VH_E1EFF06nMT_C9s5l1-124" value="Q" style="text;strokeColor=none;align=center;fillColor=none;html=1;verticalAlign=middle;whiteSpace=wrap;rounded=0;fontFamily=Helvetica;fontSize=11;fontColor=default;labelBackgroundColor=default;" vertex="1" parent="1">
          <mxGeometry x="560" y="1580" width="60" height="30" as="geometry" />
        </mxCell>
        <mxCell id="VH_E1EFF06nMT_C9s5l1-125" value="" style="endArrow=classic;html=1;rounded=0;strokeColor=default;align=center;verticalAlign=middle;fontFamily=Helvetica;fontSize=11;fontColor=default;labelBackgroundColor=default;" edge="1" parent="1">
          <mxGeometry width="50" height="50" relative="1" as="geometry">
            <mxPoint x="605" y="1596" as="sourcePoint" />
            <mxPoint x="685" y="1596" as="targetPoint" />
          </mxGeometry>
        </mxCell>
        <mxCell id="VH_E1EFF06nMT_C9s5l1-126" value="64" style="text;strokeColor=none;align=center;fillColor=none;html=1;verticalAlign=middle;whiteSpace=wrap;rounded=0;fontFamily=Helvetica;fontSize=11;fontColor=default;labelBackgroundColor=default;" vertex="1" parent="1">
          <mxGeometry x="405" y="1680" width="60" height="30" as="geometry" />
        </mxCell>
        <mxCell id="VH_E1EFF06nMT_C9s5l1-127" value="Data_in [15:0]" style="text;strokeColor=none;align=center;fillColor=none;html=1;verticalAlign=middle;whiteSpace=wrap;rounded=0;" vertex="1" parent="1">
          <mxGeometry x="390" y="1560" width="80" height="30" as="geometry" />
        </mxCell>
        <mxCell id="VH_E1EFF06nMT_C9s5l1-128" value="Data_out [15:0]" style="text;strokeColor=none;align=center;fillColor=none;html=1;verticalAlign=middle;whiteSpace=wrap;rounded=0;" vertex="1" parent="1">
          <mxGeometry x="610" y="1560" width="90" height="30" as="geometry" />
        </mxCell>
        <mxCell id="VH_E1EFF06nMT_C9s5l1-130" value="Package" style="rounded=0;whiteSpace=wrap;html=1;" vertex="1" parent="1">
          <mxGeometry x="1148" y="1200" width="120" height="160" as="geometry" />
        </mxCell>
        <mxCell id="VH_E1EFF06nMT_C9s5l1-131" value="&lt;sup&gt;Decimation&lt;/sup&gt;" style="rounded=0;whiteSpace=wrap;html=1;" vertex="1" parent="1">
          <mxGeometry x="1428" y="1200" width="120" height="160" as="geometry" />
        </mxCell>
        <mxCell id="VH_E1EFF06nMT_C9s5l1-132" value="" style="endArrow=classic;html=1;rounded=0;entryX=0;entryY=0.25;entryDx=0;entryDy=0;" edge="1" parent="1" target="VH_E1EFF06nMT_C9s5l1-131">
          <mxGeometry width="50" height="50" relative="1" as="geometry">
            <mxPoint x="1268" y="1240" as="sourcePoint" />
            <mxPoint x="1388" y="1240" as="targetPoint" />
          </mxGeometry>
        </mxCell>
        <mxCell id="VH_E1EFF06nMT_C9s5l1-133" value="unpacked_data [15:0]" style="text;strokeColor=none;align=center;fillColor=none;html=1;verticalAlign=middle;whiteSpace=wrap;rounded=0;" vertex="1" parent="1">
          <mxGeometry x="1268" y="1210" width="130" height="30" as="geometry" />
        </mxCell>
        <mxCell id="VH_E1EFF06nMT_C9s5l1-134" value="" style="endArrow=none;html=1;rounded=0;" edge="1" parent="1">
          <mxGeometry width="50" height="50" relative="1" as="geometry">
            <mxPoint x="1148" y="1346" as="sourcePoint" />
            <mxPoint x="1168" y="1336" as="targetPoint" />
          </mxGeometry>
        </mxCell>
        <mxCell id="VH_E1EFF06nMT_C9s5l1-135" value="" style="endArrow=none;html=1;rounded=0;exitX=0.005;exitY=0.772;exitDx=0;exitDy=0;exitPerimeter=0;" edge="1" parent="1">
          <mxGeometry width="50" height="50" relative="1" as="geometry">
            <mxPoint x="1149" y="1320" as="sourcePoint" />
            <mxPoint x="1168" y="1336" as="targetPoint" />
          </mxGeometry>
        </mxCell>
        <mxCell id="VH_E1EFF06nMT_C9s5l1-136" value="Comb Filter" style="rounded=0;whiteSpace=wrap;html=1;" vertex="1" parent="1">
          <mxGeometry x="1708" y="1200" width="120" height="160" as="geometry" />
        </mxCell>
        <mxCell id="VH_E1EFF06nMT_C9s5l1-137" value="" style="endArrow=none;html=1;rounded=0;" edge="1" parent="1">
          <mxGeometry width="50" height="50" relative="1" as="geometry">
            <mxPoint x="1708" y="1350" as="sourcePoint" />
            <mxPoint x="1728" y="1340" as="targetPoint" />
          </mxGeometry>
        </mxCell>
        <mxCell id="VH_E1EFF06nMT_C9s5l1-138" value="" style="endArrow=none;html=1;rounded=0;exitX=0.005;exitY=0.772;exitDx=0;exitDy=0;exitPerimeter=0;" edge="1" parent="1" source="VH_E1EFF06nMT_C9s5l1-136">
          <mxGeometry width="50" height="50" relative="1" as="geometry">
            <mxPoint x="1698" y="1360" as="sourcePoint" />
            <mxPoint x="1728" y="1340" as="targetPoint" />
          </mxGeometry>
        </mxCell>
        <mxCell id="VH_E1EFF06nMT_C9s5l1-139" value="" style="endArrow=classic;html=1;rounded=0;entryX=0;entryY=0.25;entryDx=0;entryDy=0;" edge="1" parent="1">
          <mxGeometry width="50" height="50" relative="1" as="geometry">
            <mxPoint x="1548" y="1239.72" as="sourcePoint" />
            <mxPoint x="1708" y="1239.72" as="targetPoint" />
          </mxGeometry>
        </mxCell>
        <mxCell id="VH_E1EFF06nMT_C9s5l1-140" value="Decimated_data [15:0]" style="text;strokeColor=none;align=center;fillColor=none;html=1;verticalAlign=middle;whiteSpace=wrap;rounded=0;" vertex="1" parent="1">
          <mxGeometry x="1548" y="1210" width="150" height="30" as="geometry" />
        </mxCell>
        <mxCell id="VH_E1EFF06nMT_C9s5l1-141" value="" style="endArrow=classic;html=1;rounded=0;entryX=0;entryY=0.25;entryDx=0;entryDy=0;" edge="1" parent="1">
          <mxGeometry width="50" height="50" relative="1" as="geometry">
            <mxPoint x="988" y="1240" as="sourcePoint" />
            <mxPoint x="1148" y="1240" as="targetPoint" />
          </mxGeometry>
        </mxCell>
        <mxCell id="VH_E1EFF06nMT_C9s5l1-143" value="&lt;div&gt;Quantized_data&lt;/div&gt;" style="text;strokeColor=none;align=center;fillColor=none;html=1;verticalAlign=middle;whiteSpace=wrap;rounded=0;" vertex="1" parent="1">
          <mxGeometry x="979.9" y="1200" width="150" height="30" as="geometry" />
        </mxCell>
        <mxCell id="VH_E1EFF06nMT_C9s5l1-148" value="" style="endArrow=classic;html=1;rounded=0;" edge="1" parent="1">
          <mxGeometry width="50" height="50" relative="1" as="geometry">
            <mxPoint x="1828" y="1240.0000000000002" as="sourcePoint" />
            <mxPoint x="1908" y="1240.0000000000002" as="targetPoint" />
          </mxGeometry>
        </mxCell>
        <mxCell id="VH_E1EFF06nMT_C9s5l1-149" value="" style="endArrow=classic;html=1;rounded=0;" edge="1" parent="1">
          <mxGeometry width="50" height="50" relative="1" as="geometry">
            <mxPoint x="1828" y="1299.8100000000002" as="sourcePoint" />
            <mxPoint x="1908" y="1299.8100000000002" as="targetPoint" />
          </mxGeometry>
        </mxCell>
        <mxCell id="VH_E1EFF06nMT_C9s5l1-150" value="Data_out [15:0]" style="text;strokeColor=none;align=center;fillColor=none;html=1;verticalAlign=middle;whiteSpace=wrap;rounded=0;" vertex="1" parent="1">
          <mxGeometry x="1828" y="1210" width="104" height="30" as="geometry" />
        </mxCell>
        <mxCell id="VH_E1EFF06nMT_C9s5l1-151" value="Data_valid" style="text;strokeColor=none;align=center;fillColor=none;html=1;verticalAlign=middle;whiteSpace=wrap;rounded=0;" vertex="1" parent="1">
          <mxGeometry x="1838" y="1269.8100000000002" width="60" height="30" as="geometry" />
        </mxCell>
        <mxCell id="VH_E1EFF06nMT_C9s5l1-153" value="" style="endArrow=none;html=1;rounded=0;" edge="1" parent="1">
          <mxGeometry width="50" height="50" relative="1" as="geometry">
            <mxPoint x="1428" y="1356" as="sourcePoint" />
            <mxPoint x="1448" y="1346" as="targetPoint" />
          </mxGeometry>
        </mxCell>
        <mxCell id="VH_E1EFF06nMT_C9s5l1-154" value="" style="endArrow=none;html=1;rounded=0;exitX=0.005;exitY=0.772;exitDx=0;exitDy=0;exitPerimeter=0;" edge="1" parent="1">
          <mxGeometry width="50" height="50" relative="1" as="geometry">
            <mxPoint x="1429" y="1330" as="sourcePoint" />
            <mxPoint x="1448" y="1346" as="targetPoint" />
          </mxGeometry>
        </mxCell>
        <mxCell id="VH_E1EFF06nMT_C9s5l1-155" value="SDM" style="text;strokeColor=none;align=center;fillColor=none;html=1;verticalAlign=middle;whiteSpace=wrap;rounded=0;fontFamily=Helvetica;fontSize=11;fontColor=default;labelBackgroundColor=default;" vertex="1" parent="1">
          <mxGeometry x="980" y="1134" width="60" height="30" as="geometry" />
        </mxCell>
        <mxCell id="VH_E1EFF06nMT_C9s5l1-156" value="Package" style="text;strokeColor=none;align=center;fillColor=none;html=1;verticalAlign=middle;whiteSpace=wrap;rounded=0;fontFamily=Helvetica;fontSize=11;fontColor=default;labelBackgroundColor=default;" vertex="1" parent="1">
          <mxGeometry x="950" y="1570" width="60" height="30" as="geometry" />
        </mxCell>
      </root>
    </mxGraphModel>
  </diagram>
</mxfile>
